<svg id="Capa_1" enable-background="new 0 0 497 497" height="512" viewBox="0 0 497 497" width="512" xmlns="http://www.w3.org/2000/svg"><path d="m312.558 194.834h15v-60l-15 7.5z" fill="#67747a"/><path d="m372.558 127.334h-52.5c-4.142 0-7.5 3.358-7.5 7.5v7.5h60c8.271 0 15 6.729 15 15s-6.729 15-15 15h-22.5c-4.142 0-7.5 3.358-7.5 7.5s3.358 7.5 7.5 7.5h22.5c16.542 0 30-13.458 30-30s-13.458-30-30-30z" fill="#373e42"/><path d="m98.5 225.166v197c54.4 0 98.5-44.1 98.5-98.5s-44.1-98.5-98.5-98.5z" fill="#373e42"/><path d="m167 323.666c0-54.4-30.669-98.5-68.5-98.5-54.4 0-98.5 44.1-98.5 98.5s44.1 98.5 98.5 98.5c37.831 0 68.5-44.099 68.5-98.5z" fill="#475055"/><path d="m398.5 225.166v197c54.4 0 98.5-44.1 98.5-98.5s-44.1-98.5-98.5-98.5z" fill="#373e42"/><path d="m467 323.666c0-54.4-30.669-98.5-68.5-98.5-54.4 0-98.5 44.1-98.5 98.5s44.1 98.5 98.5 98.5c37.831 0 68.5-44.099 68.5-98.5z" fill="#475055"/><path d="m170.609 74.833h-30l15 30h22.5c4.142 0 7.5-3.358 7.5-7.5v-7.5c0-8.284-6.715-15-15-15z" fill="#f9d103"/><path d="m140.609 74.833h-43.35c-8.284 0-15 6.716-15 15s6.716 15 15 15h58.35s0-6.716 0-15-6.715-15-15-15z" fill="#f9e167"/><path d="m133.828 127.333h-10.619c-4.142 0-7.5 3.358-7.5 7.5s3.358 7.5 7.5 7.5h34.38z" fill="#475055"/><path d="m177.331 142.333-6.59-11.283c-1.345-2.302-3.81-3.717-6.476-3.717h-30.438l39.425 67.5h34.743z" fill="#67747a"/><path d="m404.976 319.884-77.418-132.55h-158.625l-76.92 132.568c-1.347 2.32-1.351 5.183-.012 7.507 1.338 2.324 3.816 3.757 6.499 3.757h150c2.674 0 5.145-1.423 6.487-3.736l68.288-117.689 68.75 117.708c1.395 2.388 3.904 3.718 6.483 3.718 1.285 0 2.586-.33 3.776-1.025 3.575-2.088 4.781-6.682 2.692-10.258zm-293.453-3.718 61.751-106.425 62.16 106.425zm136.956-7.407-62.16-106.425h123.911z" fill="#7ee3ec"/></svg>